<svg width="36" height="30" viewBox="0 0 36 30" fill="none" xmlns="http://www.w3.org/2000/svg">
<path d="M32.0562 4.25444C28.4379 -0.0492511 20.8063 -0.212022 17.7222 4.53044C14.6381 -0.211137 7.00745 -0.0483666 3.38825 4.25444C-5.73657 15.1035 13.962 29 17.7222 29C21.4824 29 41.181 15.1026 32.0562 4.25444Z" stroke="url(#paint0_linear_87_22)" stroke-width="1.5" stroke-linecap="round" stroke-linejoin="round"/>
<path d="M23.7991 8C23.2443 8 22.712 8.22701 22.3193 8.6294L16.6443 14.4613L13.9222 11.5983C13.7301 11.3966 13.5012 11.2356 13.2486 11.1246C12.996 11.0137 12.7245 10.9549 12.4498 10.9517C12.175 10.9485 11.9023 11.0009 11.6473 11.1059C11.3922 11.2108 11.1598 11.3664 10.9633 11.5636C10.7668 11.7608 10.6101 11.9959 10.502 12.2553C10.394 12.5147 10.3368 12.7935 10.3336 13.0756C10.3305 13.3578 10.3815 13.6378 10.4837 13.8997C10.586 14.1616 10.7375 14.4002 10.9295 14.602L15.1289 19.0194C15.3224 19.2227 15.5532 19.3847 15.808 19.4958C16.0628 19.6069 16.3366 19.665 16.6134 19.6666C16.8903 19.6683 17.1647 19.6135 17.4207 19.5054C17.6768 19.3974 17.9094 19.2382 18.1051 19.0372L25.2781 11.6687C25.57 11.368 25.7687 10.9854 25.8491 10.5689C25.9295 10.1525 25.888 9.72097 25.7299 9.32871C25.5719 8.93645 25.3042 8.60102 24.9608 8.36472C24.6173 8.12842 24.2134 8.00183 23.8 8.00089L23.7991 8Z" stroke="#00A69C" stroke-width="1.5" stroke-linecap="round" stroke-linejoin="round"/>
<defs>
<linearGradient id="paint0_linear_87_22" x1="29.9247" y1="23.1156" x2="4.15005" y2="2.22831" gradientUnits="userSpaceOnUse">
<stop stop-color="#0D5CDF"/>
<stop offset="1" stop-color="#00A69C"/>
</linearGradient>
</defs>
</svg>
